<svg version="1.1" xmlns="http://www.w3.org/2000/svg" xmlns:xlink="http://www.w3.org/1999/xlink" x="0px" y="0px" viewBox="0 0 836 98.3" style="enable-background:new 0 0 836 98.3;" xml:space="preserve">

    <polygon fill="#CFC6B8" points="459.2,62.6 459.2,57.9 437.7,57.9 437.7,69.1 444.8,69.1 444.8,92.3 451.8,92.4 451.8,62.6 "/>
    <polygon fill="#CFC6B8" points="474.8,75.2 474.8,62.6 461.5,62.6 461.5,92.5 479.8,92.8 479.8,75.2 "/>
    <path fill="#E2D8C7" d="M507.6,41.2c0-2.4,0-8.1-8.1-8.1c-2.3,0-4.2,0.7-5.5,2.1c-2.2,2.3-2.1,5.8-2,6.2v17.2h5.8v34.1h-16.7l26.5,0.3
  V62.6V41.2z"/>
    <polygon fill="#E9DFCE" points="521.8,58.7 531.3,58.7 531.3,15.3 529.3,15.3 529.3,10 522.5,10 522.5,1.9 520.2,1.9 520.2,10
  513.5,10 513.5,15.6 511.8,15.6 511.8,62.6 521.8,62.6 "/>
    <path fill="#E2D8C7" d="M568.7,71h-7.6v22.8l7.3,0.1c0.6,0,1.1-0.5,1.1-1.1V71H568.7z"/>
    <rect fill="#CFC6B8" x="539.5" y="65.4" width="8.8" height="5.6"/>
    <rect fill="#E2D8C7" x="531.3" y="58.7" width="8.2" height="6.7"/>
    <polygon fill="#CFC6B8" points="521.8,62.6 511.8,62.6 507.6,62.6 507.6,93.1 521.8,93.3 "/>
    <polygon fill="#E2D8C7" points="521.8,62.6 521.8,93.3 539.5,93.5 539.5,71 539.5,65.4 531.3,65.4 531.3,58.7 521.8,58.7 "/>
    <polygon fill="#E9DFCE" points="548.3,71 539.5,71 539.5,93.5 561.1,93.8 561.1,71 "/>
    <polygon fill="#E9DFCE" points="497.8,58.7 492,58.7 479.8,58.7 479.8,75.2 479.8,92.8 481.1,92.8 497.8,92.8 "/>
    <polygon fill="#E2D8C7" points="459.2,62.6 451.8,62.6 451.8,92.4 461.5,92.5 461.5,62.6 "/>
    <polygon fill="#FFF200" points="313.5,-214.5 258.6,-220.5 258.6,-224.1 313.5,-230.1 "/>
    <polygon fill="#E9DFCE" points="437.7,69.1 430.2,69.1 428.3,70.2 428.3,55.3 413.5,52.8 410.2,58.1 410.2,65.4 398,65.4 398,65.4
  420.2,65.4 420.2,94 430.2,92.2 444.8,92.3 444.8,69.1 "/>
    <polygon fill="#E9DFCE" points="347.5,73.2 361.7,73.2 361.7,53.7 368.1,53.7 368.1,0 357.6,0 339.5,6.2 339.5,65.4 347.5,65.4 "/>
    <polygon fill="#CFC6B8" points="398,65.4 398,93.8 420.2,94 420.2,65.4 "/>
    <polygon fill="#E9DFCE" points="381.8,59.1 381.8,65.4 381.8,93.6 398,93.8 398,65.4 398,65.4 398,59.1 "/>
    <polygon fill="#CFC6B8" points="370.3,53.7 368.1,53.7 361.7,53.7 361.7,73.2 361.7,93.3 365.1,93.4 376.5,93.5 379.5,93.5 381.8,93.6
  381.8,65.4 381.8,59.1 381.8,53.7 "/>
    <polygon fill="#E2D8C7" points="347.5,73.2 347.5,65.4 339.5,65.4 336.4,65.4 327.7,65.4 327.7,92.9 336.4,93 345,93.1 347.5,93.1
  361.7,93.3 361.7,73.2 "/>
    <polygon fill="#E9DFCE" points="309.8,65.4 309.8,43.4 306,39.5 301.3,39.5 301.3,32.1 299.1,32.1 299.1,39.5 295.3,39.5 290.7,44.1
  290.7,49.8 302,49.8 302,65.4 302,92.6 310.8,92.7 310.8,65.4 "/>
    <polygon fill="#E2D8C7" points="290.7,49.8 285.4,49.8 285.4,77.7 285.4,93.1 298.5,92.6 300.5,92.5 302,92.6 302,65.4 302,49.8 "/>
    <polygon fill="#CFC6B8" points="310.8,48.4 310.8,65.4 310.8,92.7 317,92.8 327.7,92.9 327.7,65.4 336.4,65.4 336.4,48.4 "/>
</svg>
