<svg version="1.1" xmlns="http://www.w3.org/2000/svg" xmlns:xlink="http://www.w3.org/1999/xlink" x="0px" y="0px" viewBox="0 0 836 98.3" style="enable-background:new 0 0 836 98.3;" xml:space="preserve">

  <path fill="#4480C2" d="M820.2,89.1c-8.7-0.2-15.4-3.7-16.7-4.4c-0.2,0.1-0.6,0.3-1,0.6v0c-1.8,1-5.6,2.7-10.4,3.5c-0.1,0-0.2,0-0.3,0
    c-0.3,0-0.6,0.1-0.9,0.1c-0.2,0-0.4,0-0.6,0.1c-0.2,0-0.5,0-0.7,0.1c-0.3,0-0.6,0-0.9,0.1c-0.2,0-0.3,0-0.5,0c-0.5,0-1,0-1.5,0
    c-4.9-0.1-9.1-1.3-12.2-2.4c-2.4-0.9-4-1.7-4.5-2c-1.3,0.8-8,4.7-16.9,4.4c-3.3-0.1-6.2-0.6-8.8-1.3c-0.8-0.2-1.6-0.5-2.4-0.7
    s-1.4-0.5-2-0.7s-1.2-0.5-1.6-0.7c-0.5-0.2-0.9-0.4-1.2-0.6s-0.6-0.3-0.7-0.4l0,0h0c-0.1,0.1-0.2,0.1-0.3,0.2
    c-0.2,0.1-0.6,0.3-1,0.5c-2.4,1.3-7.5,3.5-14,3.7c-0.5,0-1.1,0-1.6,0c-0.5,0-1.1,0-1.6-0.1c-0.1,0-0.3,0-0.4,0
    c-0.4,0-0.8-0.1-1.2-0.1c-0.2,0-0.4,0-0.5-0.1c-0.3,0-0.6-0.1-1-0.1c-0.2,0-0.4-0.1-0.6-0.1c-0.3-0.1-0.6-0.1-0.9-0.2
    c-0.2,0-0.3-0.1-0.5-0.1c-0.3-0.1-0.6-0.1-0.9-0.2c-0.1,0-0.3-0.1-0.4-0.1c-0.3-0.1-0.6-0.1-0.9-0.2c-0.1,0-0.3-0.1-0.4-0.1
    c-0.3-0.1-0.6-0.2-0.8-0.2c-0.1,0-0.2-0.1-0.3-0.1c-0.3-0.1-0.6-0.2-0.9-0.3c-0.1,0-0.1-0.1-0.2-0.1c-0.3-0.1-0.6-0.2-0.8-0.3
    c-0.1,0-0.1,0-0.2-0.1c-0.3-0.1-0.5-0.2-0.8-0.3c-0.1,0-0.1,0-0.2-0.1c-0.2-0.1-0.5-0.2-0.7-0.3c0,0-0.1,0-0.1,0
    c-1.3-0.6-2.2-1-2.6-1.3c-2.1,1.2-8.4,4.3-16.3,4.1c-8.7-0.2-15.4-3.7-16.7-4.4c-0.1,0.1-0.3,0.2-0.6,0.3c0,0,0,0,0,0
    c-0.4,0.2-0.9,0.5-1.6,0.8c0,0-0.1,0-0.1,0.1c-0.2,0.1-0.4,0.2-0.6,0.3c-0.1,0-0.2,0.1-0.2,0.1c-0.2,0.1-0.3,0.2-0.5,0.2
    c-0.1,0-0.2,0.1-0.3,0.1c-0.2,0.1-0.3,0.1-0.5,0.2c-0.1,0-0.2,0.1-0.4,0.1c-0.2,0.1-0.4,0.1-0.5,0.2c-0.1,0-0.3,0.1-0.4,0.1
    c-0.2,0.1-0.4,0.1-0.6,0.2c-0.2,0-0.3,0.1-0.5,0.1c-0.2,0.1-0.4,0.1-0.6,0.2c-0.2,0-0.3,0.1-0.5,0.1c-0.2,0.1-0.4,0.1-0.6,0.2
    c-0.2,0-0.4,0.1-0.5,0.1c-0.2,0-0.4,0.1-0.6,0.1c-0.2,0-0.4,0.1-0.6,0.1c-0.2,0-0.4,0.1-0.7,0.1c-0.1,0-0.3,0-0.4,0.1
    c-0.1,0-0.2,0-0.4,0.1c-0.2,0-0.3,0-0.5,0.1c-0.1,0-0.2,0-0.4,0c-0.2,0-0.5,0.1-0.8,0.1c-0.1,0-0.2,0-0.2,0c-0.1,0-0.3,0-0.4,0
    c-0.4,0-0.7,0-1.1,0.1c-0.1,0-0.2,0-0.4,0c-0.5,0-1,0-1.6,0c-8.7-0.2-15.4-3.7-16.7-4.4l0,0h0c-0.1,0.1-0.2,0.1-0.3,0.2
    c-1.9,1.1-8.3,4.5-16.6,4.2c-0.1,0-0.2,0-0.4,0c-8.5-0.3-15-3.7-16.3-4.4c0,0,0,0,0,0s0,0,0,0c-0.2,0.1-0.6,0.3-1,0.6
    c-2.4,1.3-8,3.8-15.1,3.8c-0.3,0-0.5,0-0.8,0c0,0,0,0-0.1,0c-0.5,0-1,0-1.5-0.1c-0.2,0-0.5,0-0.7-0.1c-0.3,0-0.6,0-0.9-0.1
    c-0.3,0-0.5-0.1-0.8-0.1c-0.2,0-0.5-0.1-0.7-0.1c-0.3,0-0.5-0.1-0.8-0.1c-0.2,0-0.5-0.1-0.7-0.1c-0.2,0-0.5-0.1-0.7-0.2
    c-0.2,0-0.4-0.1-0.6-0.1c-0.2-0.1-0.5-0.1-0.7-0.2c-0.2-0.1-0.4-0.1-0.6-0.2c-0.2-0.1-0.4-0.1-0.7-0.2c-0.2-0.1-0.4-0.1-0.6-0.2
    c-0.2-0.1-0.4-0.1-0.6-0.2c-0.2-0.1-0.4-0.1-0.5-0.2c-0.2-0.1-0.4-0.1-0.5-0.2c-0.2-0.1-0.3-0.1-0.5-0.2c-0.2-0.1-0.3-0.1-0.5-0.2
    c-0.2-0.1-0.3-0.1-0.5-0.2c-0.2-0.1-0.3-0.1-0.4-0.2c-0.1-0.1-0.3-0.1-0.4-0.2c-0.1-0.1-0.3-0.1-0.4-0.2c-0.1-0.1-0.3-0.1-0.4-0.2
    c-0.1-0.1-0.2-0.1-0.3-0.1c-0.1-0.1-0.2-0.1-0.4-0.2c-0.1,0-0.2-0.1-0.2-0.1c-0.1-0.1-0.2-0.1-0.3-0.2c-0.1,0-0.1-0.1-0.2-0.1
    c-0.1,0-0.2-0.1-0.3-0.1c0,0-0.1,0-0.1-0.1c-0.1,0-0.2-0.1-0.2-0.1l0,0c0,0-0.1,0-0.1,0.1c-1.6,1-8.1,4.6-16.8,4.3c0,0-0.1,0-0.1,0
    c-0.5,0-1,0-1.5-0.1c-0.2,0-0.4,0-0.5-0.1c-0.3,0-0.7-0.1-1-0.1c-0.2,0-0.4-0.1-0.6-0.1c-0.3,0-0.6-0.1-0.9-0.1
    c-0.2,0-0.4-0.1-0.6-0.1c-0.3-0.1-0.6-0.1-0.9-0.2c-0.2,0-0.4-0.1-0.6-0.1c-0.3-0.1-0.5-0.1-0.8-0.2c-0.2,0-0.4-0.1-0.5-0.1
    c-0.3-0.1-0.5-0.1-0.8-0.2c-0.2,0-0.4-0.1-0.5-0.2c-0.2-0.1-0.5-0.1-0.7-0.2c-0.2-0.1-0.3-0.1-0.5-0.2c-0.2-0.1-0.4-0.1-0.6-0.2
    c-0.2-0.1-0.3-0.1-0.5-0.2c-0.2-0.1-0.4-0.1-0.6-0.2c-0.2-0.1-0.3-0.1-0.5-0.2c-0.2-0.1-0.3-0.1-0.5-0.2c-0.1-0.1-0.3-0.1-0.4-0.2
    c-0.2-0.1-0.3-0.1-0.5-0.2c-0.1-0.1-0.2-0.1-0.4-0.2c-0.1-0.1-0.3-0.1-0.4-0.2c-0.1,0-0.2-0.1-0.3-0.1c-0.1-0.1-0.2-0.1-0.4-0.2
    c-0.1,0-0.1-0.1-0.2-0.1c-0.1-0.1-0.2-0.1-0.3-0.2c-0.1,0-0.1-0.1-0.2-0.1c-0.1,0-0.2-0.1-0.3-0.1c0,0-0.1,0-0.1-0.1
    c-0.1,0-0.2-0.1-0.2-0.1l0,0c-2.1,1.2-8.4,4.3-16.3,4.1c-8.7-0.2-15.4-3.7-16.7-4.4c-1.3,0.8-8,4.7-16.9,4.4
    c-8.7-0.2-15.4-3.7-16.7-4.4c-1.3,0.8-8,4.7-16.9,4.4c-8.7-0.2-15.4-3.7-16.7-4.4c0,0,0,0,0,0v0c-2.4,1.3-8.4,4.1-15.9,3.8
    c-8.7-0.2-15.4-3.7-16.7-4.4c-0.2,0.1-0.6,0.3-1,0.6c0,0,0,0,0,0l0,0c-2.5,1.3-8.4,4-15.9,3.8c-8.7-0.2-15.4-3.7-16.7-4.4
    c-1.3,0.8-8,4.7-16.9,4.4c-8.7-0.2-15.4-3.7-16.7-4.4c-1.3,0.8-8,4.7-16.9,4.4c-8.7-0.2-15.4-3.7-16.7-4.4c-0.4,0.2-0.9,0.5-1.6,0.8
    c0,0-0.1,0-0.1,0.1c-0.2,0.1-0.4,0.2-0.6,0.3c-0.1,0-0.2,0.1-0.2,0.1c-0.2,0.1-0.3,0.2-0.5,0.2c-0.1,0-0.2,0.1-0.3,0.1
    c-0.2,0.1-0.3,0.1-0.5,0.2c-0.1,0-0.2,0.1-0.4,0.1c-0.2,0.1-0.4,0.1-0.5,0.2c-0.1,0-0.3,0.1-0.4,0.1c-0.2,0.1-0.4,0.1-0.6,0.2
    c-0.2,0-0.3,0.1-0.5,0.1c-0.2,0.1-0.4,0.1-0.6,0.2c-0.2,0-0.3,0.1-0.5,0.1c-0.2,0.1-0.4,0.1-0.6,0.2c-0.2,0-0.4,0.1-0.5,0.1
    c-0.2,0-0.4,0.1-0.6,0.1c-0.2,0-0.4,0.1-0.6,0.1c-0.2,0-0.4,0.1-0.7,0.1c-0.2,0-0.4,0.1-0.6,0.1c-0.2,0-0.5,0.1-0.7,0.1
    c-0.2,0-0.4,0.1-0.6,0.1c-0.2,0-0.5,0-0.7,0.1c-0.2,0-0.4,0-0.6,0.1c-0.3,0-0.6,0-0.9,0c-0.2,0-0.3,0-0.5,0c-0.5,0-0.9,0-1.4,0
    c-8.4-0.2-14.9-3.4-16.5-4.3c-0.1,0-0.1-0.1-0.2-0.1l0,0h0c-0.2,0.1-0.6,0.3-1,0.6v0c-1.7,0.9-5,2.5-9.3,3.3c0,0,0,0,0,0
    c-0.3,0.1-0.6,0.1-0.8,0.1c-0.2,0-0.4,0.1-0.6,0.1c-0.2,0-0.4,0.1-0.7,0.1c-0.3,0-0.6,0.1-0.9,0.1c-0.2,0-0.3,0-0.5,0
    c-0.4,0-0.7,0-1.1,0.1c-0.1,0-0.2,0-0.4,0c-0.5,0-1,0-1.6,0c-0.1,0-0.3,0-0.4,0c-8.2-0.3-14.5-3.4-16.1-4.3c-0.1,0-0.1-0.1-0.2-0.1
    l0,0h0c-1.3,0.8-8,4.7-16.9,4.4c-0.1,0-0.3,0-0.4,0c-8.5-0.3-15-3.7-16.3-4.4c0,0,0,0,0,0s0,0,0,0l0,0l0,0c0,0-0.1,0.1-0.1,0.1
    c-1.6,1-8.1,4.6-16.8,4.3c0,0,0,0,0,0c0,0,0,0-0.1,0c-0.5,0-1,0-1.5-0.1c-0.1,0-0.3,0-0.4,0c0,0-0.1,0-0.1,0c-0.3,0-0.7-0.1-1-0.1
    c-0.2,0-0.4-0.1-0.6-0.1c0,0,0,0,0,0c-0.3,0-0.6-0.1-0.9-0.1c-0.2,0-0.4-0.1-0.6-0.1c-0.3-0.1-0.6-0.1-0.9-0.2
    c-0.2,0-0.3-0.1-0.5-0.1c0,0-0.1,0-0.1,0c-0.3-0.1-0.5-0.1-0.8-0.2c-0.1,0-0.3-0.1-0.4-0.1c0,0-0.1,0-0.1,0
    c-0.3-0.1-0.5-0.1-0.8-0.2c-0.1,0-0.3-0.1-0.4-0.1c-0.1,0-0.1,0-0.2,0c-0.2-0.1-0.5-0.1-0.7-0.2c-0.1,0-0.2-0.1-0.3-0.1
    c-0.1,0-0.2-0.1-0.2-0.1c-0.2-0.1-0.4-0.1-0.6-0.2c-0.1,0-0.1-0.1-0.2-0.1c-0.1,0-0.2-0.1-0.3-0.1c-0.2-0.1-0.4-0.1-0.6-0.2
    c-0.1,0-0.1,0-0.2-0.1c-0.1,0-0.2-0.1-0.3-0.1c-0.2-0.1-0.3-0.1-0.5-0.2c-0.1,0-0.1,0-0.2-0.1c-0.1,0-0.2-0.1-0.3-0.1
    c-0.2-0.1-0.3-0.1-0.5-0.2c0,0,0,0-0.1,0c-0.1,0-0.2-0.1-0.3-0.1c-0.1-0.1-0.3-0.1-0.4-0.2c-0.1,0-0.2-0.1-0.3-0.1
    c-0.1-0.1-0.2-0.1-0.4-0.2c0,0,0,0,0,0c-0.1,0-0.1-0.1-0.2-0.1c-0.1-0.1-0.2-0.1-0.3-0.2c-0.1,0-0.1-0.1-0.2-0.1
    c-0.1,0-0.2-0.1-0.3-0.1c0,0-0.1,0-0.1-0.1c-0.1,0-0.2-0.1-0.2-0.1l0,0c-2.1,1.2-8.4,4.3-16.3,4.1c-8.7-0.2-15.4-3.7-16.7-4.4
    c-0.1,0.1-0.3,0.2-0.6,0.3c0,0,0,0,0,0c-1.4,0.8-4.8,2.5-9.3,3.5c-0.1,0-0.2,0-0.2,0c-0.3,0.1-0.6,0.1-0.9,0.2
    c-0.2,0-0.4,0.1-0.6,0.1c-0.2,0-0.5,0.1-0.8,0.1c-0.3,0-0.6,0.1-0.9,0.1c-0.2,0-0.4,0-0.5,0.1c-0.4,0-0.8,0.1-1.2,0.1
    c-0.1,0-0.2,0-0.3,0c-0.5,0-1.1,0-1.6,0c-0.5,0-1.1,0-1.6-0.1c-2.1-0.2-4.1-0.5-5.9-0.9c-0.4-0.1-0.9-0.2-1.3-0.3
    c-0.8-0.2-1.6-0.5-2.4-0.7c-2.9-1-4.9-2-5.6-2.4c-1.3,0.8-8,4.7-16.9,4.4c-0.5,0-1.1,0-1.6-0.1c-0.5,0-1-0.1-1.6-0.1
    c-7.1-0.8-12.4-3.5-13.5-4.2c0,0,0,0,0,0s0,0,0,0c-0.2,0.1-0.4,0.3-0.7,0.4c-2.2,1.3-8.1,4-15.5,4c-0.2,0-0.4,0-0.6,0
    c-0.5,0-1.1,0-1.6-0.1c-0.2,0-0.5,0-0.7-0.1c-0.3,0-0.6,0-0.9-0.1c-0.3,0-0.5-0.1-0.8-0.1c-0.2,0-0.5-0.1-0.7-0.1
    c-0.3,0-0.5-0.1-0.8-0.1c-0.2,0-0.5-0.1-0.7-0.1c-0.3,0-0.5-0.1-0.7-0.2c-0.2,0-0.4-0.1-0.6-0.1c-0.2-0.1-0.5-0.1-0.7-0.2
    c-0.2-0.1-0.4-0.1-0.6-0.2c-0.2-0.1-0.4-0.1-0.7-0.2c-0.2-0.1-0.4-0.1-0.6-0.2c-0.2-0.1-0.4-0.1-0.6-0.2c-0.2-0.1-0.4-0.1-0.5-0.2
    c-0.2-0.1-0.4-0.1-0.6-0.2c-0.2-0.1-0.3-0.1-0.5-0.2c-0.2-0.1-0.3-0.1-0.5-0.2c-0.2-0.1-0.3-0.1-0.5-0.2c-0.2-0.1-0.3-0.1-0.4-0.2
    c-0.1-0.1-0.3-0.1-0.4-0.2c-0.1-0.1-0.3-0.1-0.4-0.2c-0.1-0.1-0.3-0.1-0.4-0.2c-0.1-0.1-0.2-0.1-0.3-0.1c-0.1-0.1-0.2-0.1-0.3-0.2
    c-0.1,0-0.2-0.1-0.2-0.1c-0.1-0.1-0.2-0.1-0.3-0.2c-0.1,0-0.1-0.1-0.2-0.1c-0.1,0-0.2-0.1-0.3-0.1c0,0-0.1,0-0.1-0.1
    c-0.1,0-0.1-0.1-0.2-0.1l0,0c-1.4,0.9-8.1,4.6-16.9,4.4c-8.8-0.2-15.5-3.7-16.7-4.4L0,92.6c0.1-0.1,0.3-0.1,0.5,0
    c0,0,4.6,2.7,11.3,3.9c1.7,0.3,3.5,0.5,5.2,0.5c2.1,0.1,4.2-0.1,6.4-0.5c6.1-1.2,10.2-3.9,10.3-3.9c0,0,0,0,0,0v0
    c0.1,0,0.2-0.1,0.2-0.1c0.1,0,0.2,0,0.2,0.1c0,0,3.5,2.1,8.9,3.4c0.4,0.1,0.8,0.2,1.2,0.3s0.8,0.2,1.2,0.2c1.7,0.3,3.5,0.5,5.2,0.5
    c0,0,0,0,0,0l0,0c0.1,0,0.2,0,0.3,0c2,0,4-0.1,6-0.5c0.8-0.1,1.5-0.3,2.2-0.5c4.9-1.3,8-3.4,8.1-3.4c0.1,0,0.2-0.1,0.2-0.1
    s0.2,0,0.2,0.1c0,0,4.6,2.7,11.3,3.9c0,0,0.1,0,0.1,0c1.7,0.3,3.4,0.5,5.1,0.5c0,0,0,0,0,0h0l0,0h0c2.1,0.1,4.2-0.1,6.4-0.5
    c6.1-1.2,10.2-3.9,10.3-3.9c0.1,0,0.2-0.1,0.2-0.1c0.1,0,0.2,0,0.2,0.1c0,0,4.6,2.7,11.3,3.9c0.1,0,0.2,0,0.2,0
    c1.5,0.3,3.1,0.4,4.6,0.5c0.1,0,0.2,0,0.3,0c0,0,0,0,0,0l0,0c0,0,0,0,0,0c2.1,0.1,4.2-0.1,6.4-0.5c0,0,0,0,0,0
    c0.5-0.1,1-0.2,1.5-0.3c0.1,0,0.3-0.1,0.4-0.1c0.5-0.1,0.9-0.2,1.3-0.4c0.2,0,0.3-0.1,0.5-0.1c0.3-0.1,0.5-0.2,0.8-0.3
    c0.2-0.1,0.4-0.1,0.5-0.2c0.3-0.1,0.6-0.2,0.9-0.3c0.2-0.1,0.4-0.2,0.6-0.3c0.1,0,0.2-0.1,0.3-0.1c1.2-0.5,2-1,2.6-1.3c0,0,0,0,0,0
    c0.1,0,0.2-0.1,0.2-0.1c0.1-0.1,0.3-0.1,0.5,0c0,0,4.6,2.7,11.3,3.9c1.7,0.3,3.5,0.5,5.2,0.5c2.1,0.1,4.2-0.1,6.4-0.5
    c6.1-1.2,10.2-3.9,10.3-3.9c0,0,0,0,0,0v0c0.1,0,0.1,0,0.2-0.1c0,0,0.1,0,0.1,0c0,0,0,0,0,0c0.1,0,0.1,0,0.2,0.1
    c0,0,4.6,2.7,11.3,3.9c0.8,0.1,1.7,0.3,2.5,0.3c0,0,0.1,0,0.1,0c0.7,0.1,1.3,0.1,1.9,0.1c0.2,0,0.4,0,0.6,0c0.5,0,1,0,1.6,0
    c1.6,0,3.2-0.2,4.8-0.5c6.1-1.2,10.2-3.9,10.3-3.9c0.1,0,0.2-0.1,0.2-0.1c0,0,0.1,0,0.1,0c0,0,0.1,0,0.1,0c0,0,0.1,0,0.2,0.1
    c0.1,0.1,0.4,0.2,0.7,0.4c1.5,0.8,4.8,2.3,9.2,3.2c0.4,0.1,0.8,0.2,1.2,0.2c1.7,0.3,3.5,0.5,5.2,0.5c0.5,0,1,0,1.6,0
    c1.2,0,2.5-0.2,3.7-0.4c0.4-0.1,0.7-0.1,1.1-0.2c3.4-0.7,6.2-1.8,8-2.7c0.2-0.1,0.4-0.2,0.6-0.3c1.1-0.5,1.6-0.9,1.7-0.9
    c0,0,0,0,0,0c0.1,0,0.2-0.1,0.2-0.1c0.1,0,0.1,0,0.2,0c0,0,0,0,0.1,0c0,0,0,0,0,0c0,0,0.1,0,0.2,0.1c0,0,0,0,0.1,0
    c1.1,0.6,5.3,2.7,11,3.8c0.2,0,0.4,0.1,0.7,0.1c0.6,0.1,1.3,0.2,1.9,0.3c0,0,0,0,0.1,0c0.9,0.1,1.7,0.1,2.6,0.2
    c2.1,0.1,4.2-0.1,6.4-0.5c0,0,0,0,0,0c0.5-0.1,1-0.2,1.5-0.3c0.1,0,0.3-0.1,0.4-0.1c0.4-0.1,0.8-0.2,1.2-0.3c0.2,0,0.3-0.1,0.4-0.1
    c0.3-0.1,0.6-0.2,0.9-0.3c0.2-0.1,0.4-0.1,0.6-0.2c0.2-0.1,0.3-0.1,0.5-0.2c0.4-0.2,0.8-0.3,1.1-0.5c0.1,0,0.1-0.1,0.2-0.1
    c1.2-0.5,2.2-1,2.8-1.4v0c0.5-0.3,0.7-0.4,0.8-0.5c0,0,0.1,0,0.1,0c0.1,0,0.2,0,0.3,0c0,0,0,0,0,0c0,0,0.6,0.4,1.7,0.9
    c0.2,0.1,0.4,0.2,0.6,0.3c0,0,0.1,0,0.1,0c2,0.9,5.1,2,8.9,2.7c1.7,0.3,3.5,0.5,5.2,0.5c2.1,0.1,4.2-0.1,6.4-0.5
    c0.6-0.1,1.2-0.2,1.7-0.4c0.2,0,0.3-0.1,0.5-0.1c0.4-0.1,0.8-0.2,1.1-0.3c0.2-0.1,0.4-0.1,0.6-0.2c0.3-0.1,0.6-0.2,0.9-0.3
    c0.2-0.1,0.3-0.1,0.5-0.2c0.3-0.1,0.5-0.2,0.8-0.3c0.2-0.1,0.3-0.1,0.5-0.2c0.2-0.1,0.5-0.2,0.7-0.3c0.1-0.1,0.3-0.1,0.4-0.2
    c0.2-0.1,0.4-0.2,0.6-0.3c0.1-0.1,0.2-0.1,0.3-0.2c0.2-0.1,0.3-0.2,0.5-0.2c0.1-0.1,0.2-0.1,0.3-0.1c0.1,0,0.1-0.1,0.2-0.1v0
    c0.1,0,0.2-0.1,0.2-0.1c0.1-0.1,0.3-0.1,0.5,0c0,0,4.6,2.7,11.3,3.9c1.7,0.3,3.5,0.5,5.2,0.5c2.1,0.1,4.2-0.1,6.4-0.5
    c6.1-1.2,10.2-3.9,10.3-3.9c0.1-0.1,0.3-0.1,0.5,0c0,0,4.6,2.7,11.3,3.9c1.7,0.3,3.5,0.5,5.2,0.5c2.1,0.1,4.2-0.1,6.4-0.5
    c6.1-1.2,10.2-3.9,10.3-3.9c0.1,0,0.2-0.1,0.2-0.1c0.1,0,0.2,0,0.2,0.1c0,0,4.6,2.7,11.3,3.9c1.7,0.3,3.5,0.5,5.2,0.5
    c2.1,0.1,4.2-0.1,6.4-0.5c4.4-0.8,7.7-2.5,9.3-3.3l0,0c0.1-0.1,0.3-0.1,0.5,0c0,0,4.6,2.7,11.3,3.9c1.7,0.3,3.5,0.5,5.2,0.5
    c2.1,0.1,4.2-0.1,6.4-0.5c6.1-1.2,10.2-3.9,10.3-3.9c0.1-0.1,0.3-0.1,0.5,0c0,0,4.6,2.7,11.3,3.9c1.7,0.3,3.5,0.5,5.2,0.5
    c2.1,0.1,4.2-0.1,6.4-0.5c6.1-1.2,10.2-3.9,10.3-3.9c0.1-0.1,0.3-0.1,0.5,0c0,0,4.6,2.7,11.3,3.9c1.7,0.3,3.5,0.5,5.2,0.5
    c2.1,0.1,4.2-0.1,6.4-0.5c6.1-1.2,10.2-3.9,10.3-3.9c0.1-0.1,0.3-0.1,0.5,0c0,0,4.6,2.7,11.3,3.9c1.7,0.3,3.5,0.5,5.2,0.5
    c2.1,0.1,4.2-0.1,6.4-0.5c4.8-0.9,8.4-2.8,9.7-3.6v0c0.1,0,0.1,0,0.2-0.1c0,0,0.1,0,0.1,0c0.1,0,0.2,0,0.2,0.1c0,0,0,0,0,0
    c0,0,0.5,0.3,1.5,0.8c1.9,0.9,5.4,2.4,9.8,3.1c0.8,0.1,1.6,0.2,2.4,0.3c0.1,0,0.1,0,0.2,0c0.9,0.1,1.7,0.1,2.6,0.2
    c2.1,0.1,4.2-0.1,6.4-0.5c6.1-1.2,10.2-3.9,10.3-3.9c0,0,0,0,0,0v0c0.1,0,0.2-0.1,0.2-0.1c0,0,0.1,0,0.1,0c0,0,0.1,0,0.1,0
    c0,0,0.1,0,0.2,0.1c0.2,0.1,0.5,0.3,0.9,0.5c1.7,0.9,5.4,2.5,10.3,3.3c0.9,0.1,1.7,0.3,2.6,0.4c0,0,0,0,0.1,0
    c0.9,0.1,1.7,0.1,2.6,0.2c2.1,0.1,4.2-0.1,6.4-0.5c6.1-1.2,10.2-3.9,10.3-3.9c0.1,0,0.2-0.1,0.2-0.1c0.1,0,0.2,0,0.2,0.1
    c0,0,0,0,0,0c0,0,0.1,0,0.2,0.1c0,0,0,0,0.1,0c1.1,0.6,5.3,2.7,11,3.8c0.8,0.1,1.6,0.3,2.5,0.3c0,0,0.1,0,0.1,0
    c0.9,0.1,1.7,0.1,2.6,0.2c2.1,0.1,4.2-0.1,6.4-0.5c6.1-1.2,10.2-3.9,10.3-3.9c0.1,0,0.2-0.1,0.2-0.1c0.1,0,0.2,0,0.2,0.1
    c0,0,0,0,0,0c0,0,0.6,0.4,1.7,0.9c0.2,0.1,0.4,0.2,0.6,0.3c0,0,0.1,0,0.1,0c2,0.9,5.1,2,8.9,2.7c0.9,0.2,1.7,0.3,2.6,0.4
    c0,0,0,0,0,0c0.9,0.1,1.7,0.1,2.6,0.2c2.1,0.1,4.2-0.1,6.4-0.5c0,0,0,0,0.1,0c0.5-0.1,0.9-0.2,1.4-0.3c0.1,0,0.2,0,0.3-0.1
    c0.1,0,0.1,0,0.2-0.1c0.4-0.1,0.7-0.2,1-0.3c0.1,0,0.2-0.1,0.3-0.1c0.1,0,0.3-0.1,0.4-0.1c0.2-0.1,0.4-0.1,0.6-0.2
    c0.1,0,0.3-0.1,0.4-0.1c0.1,0,0.2-0.1,0.3-0.1c0.1,0,0.2-0.1,0.3-0.1c0.2-0.1,0.5-0.2,0.7-0.3c0.2-0.1,0.3-0.1,0.5-0.2
    c0,0,0.1,0,0.1,0c0,0,0,0,0.1,0c0.2-0.1,0.4-0.2,0.5-0.2c0.1-0.1,0.3-0.1,0.4-0.2c0.2-0.1,0.4-0.2,0.6-0.3c0.1-0.1,0.2-0.1,0.3-0.2
    c0.2-0.1,0.3-0.2,0.5-0.2c0.1-0.1,0.2-0.1,0.3-0.1c0.1,0,0.1-0.1,0.2-0.1v0c0,0,0,0,0,0c0.1,0,0.2-0.1,0.2-0.1
    c0.1-0.1,0.3-0.1,0.5,0c0,0,4.6,2.7,11.3,3.9c1.7,0.3,3.5,0.5,5.2,0.5c2.1,0.1,4.2-0.1,6.4-0.5c6.1-1.2,10.2-3.9,10.3-3.9
    c0,0,0.1,0,0.2-0.1c0,0,0.1,0,0.1,0c0.1,0,0.2,0,0.2,0.1c0,0,4.6,2.7,11.3,3.9c1.7,0.3,3.5,0.5,5.2,0.5c2.1,0.1,4.2-0.1,6.4-0.5
    c6.1-1.2,10.2-3.9,10.3-3.9c0.1,0,0.2-0.1,0.2-0.1c0.1,0,0.2,0,0.2,0.1c0,0,0,0,0.1,0c0.5,0.3,4.7,2.6,10.6,3.8
    c0.2,0,0.4,0.1,0.6,0.1c0.4,0.1,0.9,0.1,1.3,0.2c1.3,0.2,2.6,0.3,3.9,0.3c0.5,0,1,0,1.6,0c1.2,0,2.4-0.2,3.7-0.3
    c0.4-0.1,0.8-0.1,1.1-0.2c4.2-0.8,7.4-2.3,9.1-3.2c0.7-0.4,1.2-0.7,1.2-0.7c0.1,0,0.2-0.1,0.2-0.1c0.1,0,0.2,0,0.2,0.1
    c0,0,0.9,0.5,2.5,1.2c0.4,0.2,0.9,0.4,1.5,0.6c0.3,0.1,0.6,0.2,0.9,0.3c1.2,0.4,2.6,0.9,4.1,1.2c0.8,0.2,1.6,0.4,2.4,0.5
    c1.7,0.3,3.5,0.5,5.2,0.5c2.1,0.1,4.2-0.1,6.4-0.5c0.5-0.1,1-0.2,1.5-0.3c0.1,0,0.3-0.1,0.4-0.1c0.4-0.1,0.8-0.2,1.2-0.3
    c0.2,0,0.3-0.1,0.4-0.1c0.3-0.1,0.6-0.2,0.9-0.3c0.2-0.1,0.4-0.1,0.6-0.2c0.2-0.1,0.3-0.1,0.5-0.2c0.4-0.2,0.8-0.3,1.1-0.4
    c0.1,0,0.1-0.1,0.2-0.1c1.2-0.5,2.2-1,2.8-1.4v0c0.5-0.3,0.7-0.4,0.8-0.5c0.1-0.1,0.3-0.1,0.5,0c0,0,4.6,2.7,11.3,3.9
    c1.7,0.3,3.5,0.5,5.2,0.5c2.1,0.1,4.2-0.1,6.4-0.5c4.6-0.9,8-2.6,9.5-3.4v-9.8C833.6,86.5,827.6,89.3,820.2,89.1z"/></svg>
